<svg width="67" height="49" viewBox="0 0 67 49" fill="none" xmlns="http://www.w3.org/2000/svg">
<path d="M18.8314 24.7544H30.7822L33.4984 48.3884H25.8932L25.5319 44.168H24.0835L23.72 48.3884H16.1162L18.8314 24.7544ZM25.3502 39.9477L24.988 28.9748H24.6259L24.2637 39.9477H25.3502Z" fill="url(#paint0_linear)"/>
<path d="M52.3203 24.7544H64.271L66.9872 48.3884H59.3819L59.0199 44.168H57.5713L57.2087 48.3884H49.605L52.3203 24.7544ZM58.8388 39.9477L58.4766 28.9748H58.1147L57.7525 39.9477H58.8388Z" fill="url(#paint1_linear)"/>
<path d="M8.04655 34.2857C8.00934 34.3019 7.95919 34.3362 7.95514 34.3669C7.93282 34.5344 7.92877 34.7041 7.90661 34.8717C7.90082 34.9323 7.91176 34.9933 7.93825 35.048C7.96474 35.1027 8.00573 35.1491 8.05674 35.1819C8.13823 35.2449 8.20661 35.3233 8.258 35.4127C8.47159 35.8534 8.62291 36.3218 8.70759 36.8045C8.76988 37.1379 8.81 37.4754 8.84866 37.8124C8.8972 38.2308 8.9514 38.6499 8.96935 39.0699C9.00106 39.8148 9.01816 40.5603 9.02064 41.3064C9.02307 41.8523 8.99119 42.3981 8.98068 42.9442C8.97324 43.3309 8.97793 43.7179 8.97356 44.1048C8.97097 44.327 8.7016 44.4297 8.60146 44.4297C8.41088 44.4426 8.21043 44.4516 8.09719 44.4573C7.80064 44.472 7.66927 44.4909 7.3724 44.4924C7.30741 44.4892 7.24528 44.4646 7.19577 44.4222C7.14625 44.3798 7.11216 44.3221 7.09883 44.2581C7.0853 44.1899 7.07901 44.1203 7.08006 44.0507C7.07931 41.6054 7.07931 39.16 7.08006 36.7145H7.07909C7.07909 34.3386 7.07909 31.9628 7.07909 29.5871C7.07738 29.4557 7.08224 29.3243 7.09365 29.1934C7.09378 29.1215 7.12213 29.0526 7.17256 29.0016C7.22299 28.9506 7.29143 28.9216 7.36302 28.9209C7.62681 28.9071 7.8912 28.9101 8.15462 28.9298C8.22239 28.9403 8.28449 28.9739 8.3305 29.025C8.37651 29.076 8.40364 29.1414 8.40732 29.2101C8.41396 29.3529 8.42124 29.496 8.4214 29.6391C8.42269 30.6295 8.42269 31.62 8.4214 32.6105C8.4214 32.7033 8.40894 32.796 8.41153 32.8886C8.41379 32.9784 8.46006 33.0315 8.56846 33.0257C8.66359 33.0206 8.75936 33.0244 8.85481 33.0244H15.572V29.8187C15.572 27.0217 13.1401 24.7544 10.14 24.7544H5.43215C2.43207 24.7544 0 27.0217 0 29.8187V43.3239C0 46.1209 2.43207 48.3884 5.43231 48.3884H6.51868C7.96728 48.3884 9.19844 47.9834 10.14 47.2742V48.3884H15.572V34.2808L8.15656 34.2823C8.11999 34.2766 8.0827 34.2778 8.04655 34.2857Z" fill="url(#paint2_linear)"/>
<path d="M41.4435 34.2857C41.4063 34.3019 41.3562 34.3362 41.3521 34.3669C41.3298 34.5344 41.3257 34.7041 41.3036 34.8717C41.2978 34.9323 41.3087 34.9933 41.3352 35.048C41.3617 35.1027 41.4027 35.1491 41.4537 35.1819C41.5352 35.2449 41.6036 35.3233 41.655 35.4127C41.8686 35.8534 42.0199 36.3218 42.1046 36.8045C42.1667 37.1379 42.207 37.4754 42.2455 37.8124C42.294 38.2308 42.3484 38.6499 42.3663 39.0699C42.398 39.8148 42.4151 40.5603 42.4176 41.3064C42.42 41.8523 42.3882 42.3981 42.3777 42.9442C42.3702 43.3309 42.3747 43.7179 42.3704 44.1048C42.3679 44.327 42.0986 44.4297 41.9983 44.4297C41.8077 44.4426 41.6072 44.4516 41.494 44.4573C41.1973 44.472 41.0659 44.4909 40.7692 44.4924C40.7042 44.4892 40.6421 44.4646 40.5926 44.4222C40.5431 44.3798 40.509 44.3221 40.4956 44.2581C40.4821 44.1899 40.4758 44.1203 40.4769 44.0507C40.476 41.6054 40.4757 39.16 40.4761 36.7145H40.4753C40.4753 34.3386 40.4753 31.9628 40.4753 29.5871C40.4735 29.4557 40.4783 29.3243 40.4897 29.1934C40.4899 29.1215 40.5183 29.0526 40.5687 29.0016C40.6192 28.9506 40.6876 28.9216 40.7592 28.9209C41.0229 28.9071 41.2873 28.9101 41.5506 28.9298C41.6184 28.9403 41.6805 28.9739 41.7266 29.0249C41.7726 29.076 41.7997 29.1414 41.8033 29.2101C41.8101 29.3529 41.8174 29.496 41.8176 29.6391C41.8189 30.6295 41.8189 31.62 41.8176 32.6105C41.8176 32.7033 41.8053 32.796 41.8077 32.8886C41.8101 32.9784 41.8562 33.0315 41.9648 33.0257C42.0599 33.0206 42.1557 33.0244 42.2511 33.0244H48.9683V29.8187C48.9683 27.0217 46.5364 24.7544 43.5363 24.7544H38.8304C35.8305 24.7544 33.3984 27.0217 33.3984 29.8187V43.3239C33.3984 46.1209 35.8305 48.3884 38.8306 48.3884H39.9171C41.3657 48.3884 42.5969 47.9834 43.5384 47.2742V48.3884H48.9704V34.2808L41.5548 34.2823C41.5178 34.2765 41.4801 34.2776 41.4435 34.2857Z" fill="url(#paint3_linear)"/>
<path d="M17.1745 19.259V23.4457H6.27295V0H12.9816V19.259H17.1745Z" fill="url(#paint4_linear)"/>
<path d="M20.193 0H31.2624L33.7781 23.4458H26.734L26.3986 19.2592H25.0568L24.7214 23.4458H17.6772L20.193 0ZM26.2308 15.0724L25.8953 4.18681H25.5599L25.2244 15.0724H26.2308Z" fill="url(#paint5_linear)"/>
<path d="M48.7049 5.02391V18.4216C48.7049 21.4361 46.6924 23.4457 43.6735 23.4457H34.2812V0H43.6735C46.693 0 48.7049 2.00943 48.7049 5.02391ZM41.9963 4.18664H40.99V19.259H41.9963V4.18664Z" fill="url(#paint6_linear)"/>
<path d="M64.9022 0L60.0384 15.2397V23.4457H53.3296V15.2397L48.4658 0H55.51L56.5162 9.21088H56.8518L57.8581 0H64.9022Z" fill="url(#paint7_linear)"/>
<defs>
<linearGradient id="paint0_linear" x1="0.646066" y1="36.5714" x2="66.4029" y2="36.5714" gradientUnits="userSpaceOnUse">
<stop offset="0.018" stop-color="#B3B3B3"/>
<stop offset="0.141" stop-color="white"/>
<stop offset="0.349" stop-color="#B3B3B3"/>
<stop offset="0.518" stop-color="white"/>
<stop offset="0.739" stop-color="#B3B3B3"/>
<stop offset="0.911" stop-color="white"/>
</linearGradient>
<linearGradient id="paint1_linear" x1="0.639395" y1="36.5714" x2="66.4135" y2="36.5714" gradientUnits="userSpaceOnUse">
<stop offset="0.018" stop-color="#B3B3B3"/>
<stop offset="0.141" stop-color="white"/>
<stop offset="0.349" stop-color="#B3B3B3"/>
<stop offset="0.518" stop-color="white"/>
<stop offset="0.739" stop-color="#B3B3B3"/>
<stop offset="0.911" stop-color="white"/>
</linearGradient>
<linearGradient id="paint2_linear" x1="0.638452" y1="36.5714" x2="66.4146" y2="36.5714" gradientUnits="userSpaceOnUse">
<stop offset="0.018" stop-color="#B3B3B3"/>
<stop offset="0.141" stop-color="white"/>
<stop offset="0.349" stop-color="#B3B3B3"/>
<stop offset="0.518" stop-color="white"/>
<stop offset="0.739" stop-color="#B3B3B3"/>
<stop offset="0.911" stop-color="white"/>
</linearGradient>
<linearGradient id="paint3_linear" x1="0.634974" y1="36.5714" x2="66.4111" y2="36.5714" gradientUnits="userSpaceOnUse">
<stop offset="0.018" stop-color="#B3B3B3"/>
<stop offset="0.141" stop-color="white"/>
<stop offset="0.349" stop-color="#B3B3B3"/>
<stop offset="0.518" stop-color="white"/>
<stop offset="0.739" stop-color="#B3B3B3"/>
<stop offset="0.911" stop-color="white"/>
</linearGradient>
<linearGradient id="paint4_linear" x1="0.636864" y1="11.7228" x2="66.4166" y2="11.7228" gradientUnits="userSpaceOnUse">
<stop offset="0.018" stop-color="#B3B3B3"/>
<stop offset="0.141" stop-color="white"/>
<stop offset="0.349" stop-color="#B3B3B3"/>
<stop offset="0.518" stop-color="white"/>
<stop offset="0.739" stop-color="#B3B3B3"/>
<stop offset="0.911" stop-color="white"/>
</linearGradient>
<linearGradient id="paint5_linear" x1="0.642534" y1="11.7229" x2="66.4146" y2="11.7229" gradientUnits="userSpaceOnUse">
<stop offset="0.018" stop-color="#B3B3B3"/>
<stop offset="0.141" stop-color="white"/>
<stop offset="0.349" stop-color="#B3B3B3"/>
<stop offset="0.518" stop-color="white"/>
<stop offset="0.739" stop-color="#B3B3B3"/>
<stop offset="0.911" stop-color="white"/>
</linearGradient>
<linearGradient id="paint6_linear" x1="0.645263" y1="11.7228" x2="66.4172" y2="11.7228" gradientUnits="userSpaceOnUse">
<stop offset="0.018" stop-color="#B3B3B3"/>
<stop offset="0.141" stop-color="white"/>
<stop offset="0.349" stop-color="#B3B3B3"/>
<stop offset="0.518" stop-color="white"/>
<stop offset="0.739" stop-color="#B3B3B3"/>
<stop offset="0.911" stop-color="white"/>
</linearGradient>
<linearGradient id="paint7_linear" x1="0.635971" y1="11.7228" x2="66.4143" y2="11.7228" gradientUnits="userSpaceOnUse">
<stop offset="0.018" stop-color="#B3B3B3"/>
<stop offset="0.141" stop-color="white"/>
<stop offset="0.349" stop-color="#B3B3B3"/>
<stop offset="0.518" stop-color="white"/>
<stop offset="0.739" stop-color="#B3B3B3"/>
<stop offset="0.911" stop-color="white"/>
</linearGradient>
</defs>
</svg>
